<?xml version="1.0" standalone="no"?>
<!DOCTYPE svg PUBLIC "-//W3C//DTD SVG 20010904//EN"
 "http://www.w3.org/TR/2001/REC-SVG-20010904/DTD/svg10.dtd">
<svg version="1.0" xmlns="http://www.w3.org/2000/svg"
 width="100.000000pt" height="100.000000pt" viewBox="0 0 100.000000 100.000000"
 preserveAspectRatio="xMidYMid meet">

<g transform="translate(0.000000,100.000000) scale(0.100000,-0.100000)"
fill="#000000" stroke="none">
<path d="M505 922 c4 -15 1 -24 -10 -28 -12 -5 -14 -14 -9 -38 3 -17 10 -35
15 -40 5 -5 4 5 -1 24 -10 34 -6 50 11 50 6 0 8 -8 5 -17 -3 -10 -1 -25 4 -33
6 -10 8 -1 5 27 -2 23 -9 50 -15 60 -10 16 -10 15 -5 -5z"/>
<path d="M535 810 c4 -6 11 -8 16 -5 14 9 11 15 -7 15 -8 0 -12 -5 -9 -10z"/>
<path d="M460 786 c0 -8 5 -18 12 -22 7 -5 8 -3 3 6 -4 7 -2 16 6 21 11 7 10
9 -3 9 -10 0 -18 -6 -18 -14z"/>
<path d="M542 760 c0 -14 2 -19 5 -12 2 6 2 18 0 25 -3 6 -5 1 -5 -13z"/>
<path d="M577 753 c-10 -19 -1 -104 12 -112 7 -5 10 -14 7 -20 -4 -6 -3 -11 1
-11 5 0 14 9 21 21 8 12 9 18 4 15 -6 -3 -17 -4 -25 0 -11 4 -14 19 -12 60 3
51 1 63 -8 47z"/>
<path d="M690 738 c0 -15 -5 -28 -11 -30 -7 -2 -7 -12 0 -31 9 -23 8 -27 -8
-27 -14 0 -18 -5 -14 -19 4 -15 -4 -24 -34 -39 -35 -19 -36 -20 -11 -19 16 1
28 5 28 10 0 4 7 7 15 7 12 0 13 -4 3 -25 -9 -19 -9 -28 0 -37 7 -7 12 -20 12
-30 0 -10 7 -18 17 -18 15 0 15 -1 0 -18 -10 -10 -17 -23 -17 -28 0 -5 26 -35
58 -66 l57 -57 17 39 c10 25 12 40 6 40 -6 0 -3 9 7 20 16 18 16 20 2 20 -10
0 -14 6 -11 14 3 8 0 17 -6 21 -8 5 -7 11 2 22 11 14 10 15 -11 8 -16 -5 -21
-4 -17 4 5 7 1 9 -8 5 -21 -8 -20 6 2 22 16 13 16 13 0 14 -14 0 -18 9 -19 43
0 23 -3 36 -6 30 -9 -23 -22 -13 -19 15 2 15 -1 30 -6 33 -5 3 -12 26 -14 50
-6 50 -14 65 -14 27z"/>
<path d="M430 730 c0 -5 5 -10 11 -10 5 0 7 5 4 10 -3 6 -8 10 -11 10 -2 0 -4
-4 -4 -10z"/>
<path d="M397 644 c6 -15 23 -19 23 -5 0 5 -7 11 -14 14 -10 4 -13 1 -9 -9z"/>
<path d="M420 533 l-55 -58 58 55 c53 50 62 60 54 60 -1 0 -27 -26 -57 -57z"/>
<path d="M511 585 c2 -6 25 -30 52 -54 36 -33 47 -39 47 -26 0 10 -3 15 -7 11
-4 -3 -27 13 -51 36 -25 24 -43 38 -41 33z"/>
<path d="M358 543 c6 -2 10 -9 7 -14 -4 -5 1 -6 10 -2 13 5 14 7 3 14 -7 5
-17 8 -23 8 -5 0 -4 -3 3 -6z"/>
<path d="M460 385 c0 -8 5 -15 10 -15 6 0 10 7 10 15 0 8 -4 15 -10 15 -5 0
-10 -7 -10 -15z"/>
<path d="M510 385 c0 -8 5 -15 10 -15 6 0 10 7 10 15 0 8 -4 15 -10 15 -5 0
-10 -7 -10 -15z"/>
<path d="M460 335 c0 -8 5 -15 10 -15 6 0 10 7 10 15 0 8 -4 15 -10 15 -5 0
-10 -7 -10 -15z"/>
<path d="M510 335 c0 -8 5 -15 10 -15 6 0 10 7 10 15 0 8 -4 15 -10 15 -5 0
-10 -7 -10 -15z"/>
<path d="M793 213 c-18 -7 -16 -32 2 -39 20 -8 19 -24 -2 -24 -12 0 -14 -3 -7
-10 14 -14 44 -2 44 16 0 8 -7 17 -15 20 -20 8 -19 24 1 24 8 0 12 5 9 10 -7
11 -13 11 -32 3z"/>
<path d="M160 175 c0 -38 22 -57 43 -36 8 8 7 11 -6 11 -20 0 -23 16 -4 23 10
4 10 6 0 6 -19 1 -16 19 5 24 10 3 6 5 -10 6 -26 1 -28 -2 -28 -34z"/>
<path d="M220 175 c0 -38 22 -57 43 -36 8 8 7 11 -6 11 -12 0 -17 8 -17 30 0
17 -4 30 -10 30 -5 0 -10 -16 -10 -35z"/>
<path d="M280 175 c0 -19 5 -35 10 -35 6 0 10 16 10 35 0 19 -4 35 -10 35 -5
0 -10 -16 -10 -35z"/>
<path d="M318 203 c6 -2 12 -18 12 -34 0 -16 5 -29 10 -29 6 0 10 13 10 29 0
16 6 32 13 34 6 3 -4 5 -23 5 -19 0 -29 -2 -22 -5z"/>
<path d="M380 176 c0 -22 6 -36 16 -40 23 -9 34 -7 34 4 0 6 -7 10 -15 10 -21
0 -19 18 3 23 16 4 16 5 0 6 -10 0 -18 5 -18 10 0 5 8 12 18 14 10 3 6 5 -10
6 -25 1 -28 -2 -28 -33z"/>
<path d="M470 175 c0 -35 22 -57 38 -40 4 4 1 10 -5 12 -7 3 -13 18 -13 34 0
16 -4 29 -10 29 -5 0 -10 -16 -10 -35z"/>
<path d="M540 174 c-7 -19 -9 -38 -6 -41 3 -4 6 -1 6 5 0 16 32 15 49 0 11
-11 13 -10 7 5 -3 11 -9 30 -12 43 -9 35 -31 29 -44 -12z m30 6 c0 -5 -5 -10
-11 -10 -5 0 -7 5 -4 10 3 6 8 10 11 10 2 0 4 -4 4 -10z"/>
<path d="M610 175 c0 -38 20 -50 21 -12 l0 22 11 -22 c19 -40 38 -37 38 7 0
22 -4 40 -9 40 -5 0 -7 -9 -4 -20 3 -11 1 -20 -5 -20 -6 0 -14 9 -17 20 -11
34 -35 24 -35 -15z"/>
<path d="M702 174 c4 -45 17 -51 49 -25 20 16 22 23 13 38 -6 10 -23 19 -38
21 -26 3 -27 1 -24 -34z m43 1 c0 -10 -6 -20 -12 -22 -8 -3 -13 5 -13 22 0 17
5 25 13 23 6 -3 12 -13 12 -23z"/>
<path d="M206 76 c2 -6 13 -12 24 -13 11 -1 17 3 14 11 -2 6 -13 12 -24 13
-11 1 -17 -3 -14 -11z"/>
<path d="M260 70 c12 -22 35 -26 46 -9 5 8 9 8 14 -1 5 -8 9 -8 13 3 5 12 -1
15 -29 12 -19 -2 -34 1 -34 6 0 5 -5 9 -10 9 -7 0 -7 -6 0 -20z"/>
<path d="M361 73 c-1 -25 6 -28 29 -13 9 6 17 5 22 -3 6 -9 8 -9 8 1 0 8 5 10
12 5 7 -4 30 -8 50 -8 28 -1 38 3 38 14 0 14 -1 14 -10 1 -7 -10 -10 -11 -10
-2 0 9 -17 11 -65 8 -41 -2 -66 1 -69 8 -2 6 -5 1 -5 -11z"/>
<path d="M534 79 c-3 -6 -1 -16 5 -22 8 -8 11 -5 11 11 0 24 -5 28 -16 11z"/>
<path d="M670 73 c0 -9 3 -13 7 -10 3 4 12 2 20 -4 9 -8 13 -8 13 -1 0 7 10 8
29 2 28 -8 41 -5 41 10 0 4 -18 6 -40 6 -22 -1 -40 2 -40 7 0 4 -7 7 -15 7 -8
0 -15 -7 -15 -17z"/>
<path d="M565 70 c-4 -6 -4 -14 -1 -17 3 -4 6 -1 6 7 0 10 3 10 15 0 12 -10
15 -10 15 1 0 10 3 10 12 1 16 -16 28 -15 28 1 0 16 -66 22 -75 7z"/>
</g>
</svg>
